<svg aria-hidden="true" style="position: absolute; width: 0; height: 0; overflow: hidden;" version="1.1" xmlns="http://www.w3.org/2000/svg" xmlns:xlink="http://www.w3.org/1999/xlink">
<defs>
<symbol id="icon-thumbs-up" viewBox="0 0 24 24">
<path d="M13 9c0 0.552 0.448 1 1 1h5.679c0.065 0.002 0.153 0.011 0.153 0.011 0.273 0.041 0.502 0.188 0.655 0.396s0.225 0.47 0.184 0.742l-1.38 8.998c-0.037 0.239-0.156 0.448-0.325 0.6-0.18 0.161-0.415 0.256-0.686 0.253h-10.28v-9.788l3.608-8.118c0.307 0.098 0.582 0.268 0.806 0.492 0.363 0.363 0.586 0.861 0.586 1.414zM15 8v-3c0-1.104-0.449-2.106-1.172-2.828s-1.724-1.172-2.828-1.172c-0.405 0-0.754 0.241-0.914 0.594l-4 9c-0.060 0.134-0.087 0.275-0.086 0.406v11c0 0.552 0.448 1 1 1h11.28c0.767 0.009 1.482-0.281 2.021-0.763 0.505-0.452 0.857-1.076 0.967-1.783l1.38-9.002c0.125-0.82-0.096-1.614-0.55-2.231s-1.147-1.063-1.965-1.187c-0.165-0.025-0.333-0.037-0.492-0.034zM7 21h-3c-0.276 0-0.525-0.111-0.707-0.293s-0.293-0.431-0.293-0.707v-7c0-0.276 0.111-0.525 0.293-0.707s0.431-0.293 0.707-0.293h3c0.552 0 1-0.448 1-1s-0.448-1-1-1h-3c-0.828 0-1.58 0.337-2.121 0.879s-0.879 1.293-0.879 2.121v7c0 0.828 0.337 1.58 0.879 2.121s1.293 0.879 2.121 0.879h3c0.552 0 1-0.448 1-1s-0.448-1-1-1z"></path>
</symbol>
<symbol id="icon-bubble" viewBox="0 0 18 18">
<path d="M9.016 3c2.748 0 4.984 2.243 4.984 5s-2.236 5-4.97 5l-0.060-0.004c-0.055-0.004-0.11-0.007-0.165-0.010l-0.336-0.014-3.665 1.098 0.629-2.483-0.517-0.747c-0.58-0.839-0.886-1.822-0.886-2.842 0-2.757 2.236-5 4.984-5zM9.016 1c-3.857 0-6.984 3.134-6.984 7 0 1.479 0.46 2.848 1.241 3.978l-1.272 5.022 6.722-2.015c0.098 0.004 0.194 0.015 0.293 0.015 3.857 0 6.984-3.134 6.984-7s-3.127-7-6.984-7v0z"></path>
</symbol>

<!-- <svg xmlns="http://www.w3.org/2000/svg" width="24" height="24" viewBox="0 0 24 24" fill="none" stroke="currentColor" stroke-width="2" stroke-linecap="round" stroke-linejoin="round" class="feather feather-thumbs-up">
<symbol id="icon-thumbsUp" viewBox="0 0 24 24">
<path d="M21 11.5a8.38 8.38 0 0 1-.9 3.8 8.5 8.5 0 0 1-7.6 4.7 8.38 8.38 0 0 1-3.8-.9L3 21l1.9-5.7a8.38 8.38 0 0 1-.9-3.8 8.5 8.5 0 0 1 4.7-7.6 8.38 8.38 0 0 1 3.8-.9h.5a8.48 8.48 0 0 1 8 8v.5z"></path>
<path d="M14 9V5a3 3 0 0 0-3-3l-4 9v11h11.28a2 2 0 0 0 2-1.7l1.38-9a2 2 0 0 0-2-2.3zM7 22H4a2 2 0 0 1-2-2v-7a2 2 0 0 1 2-2h3"></path>

<symbol id="icon-comment" viewBox="0 0 24 24">
<path d="M21 11.5a8.38 8.38 0 0 1-.9 3.8 8.5 8.5 0 0 1-7.6 4.7 8.38 8.38 0 0 1-3.8-.9L3 21l1.9-5.7a8.38 8.38 0 0 1-.9-3.8 8.5 8.5 0 0 1 4.7-7.6 8.38 8.38 0 0 1 3.8-.9h.5a8.48 8.48 0 0 1 8 8v.5z"></path> -->

</defs>
</svg>
